PathFileType	4	(X/Y/Z)	RBDS027\RBDS027runT35.trc
DataRate	CameraRate	NumFrames	NumMarkers	Units	OrigDataRate	OrigDataStartFrame	OrigNumFrames
150.000000	150.000000	5	33	mm	150.000000	0	4500
Frame#	Time	L.ASIS			L.Heel.Bottom			L.Heel.Lateral			L.Heel.Top			L.Iliac.Crest			L.MT1			L.MT5			L.PSIS			L.Shank.Bottom.Lateral			L.Shank.Bottom.Medial			L.Shank.Top.Lateral			L.Shank.Top.Medial			L.Thigh.Bottom.Lateral			L.Thigh.Bottom.Medial			L.Thigh.Top.Lateral			L.Thigh.Top.Medial			R.ASIS			R.ASY			R.Heel.Bottom			R.Heel.Lateral			R.Heel.Top			R.Iliac.Crest			R.MT1			R.MT5			R.PSIS			R.Shank.Bottom.Lateral			R.Shank.Bottom.Medial			R.Shank.Top.Lateral			R.Shank.Top.Medial			R.Thigh.Bottom.Lateral			R.Thigh.Bottom.Medial			R.Thigh.Top.Lateral			R.Thigh.Top.Medial			
		X1	Y1	Z1	X2	Y2	Z2	X3	Y3	Z3	X4	Y4	Z4	X5	Y5	Z5	X6	Y6	Z6	X7	Y7	Z7	X8	Y8	Z8	X9	Y9	Z9	X10	Y10	Z10	X11	Y11	Z11	X12	Y12	Z12	X13	Y13	Z13	X14	Y14	Z14	X15	Y15	Z15	X16	Y16	Z16	X17	Y17	Z17	X18	Y18	Z18	X19	Y19	Z19	X20	Y20	Z20	X21	Y21	Z21	X22	Y22	Z22	X23	Y23	Z23	X24	Y24	Z24	X25	Y25	Z25	X26	Y26	Z26	X27	Y27	Z27	X28	Y28	Z28	X29	Y29	Z29	X30	Y30	Z30	X31	Y31	Z31	X32	Y32	Z32	X33	Y33	Z33	

1	0	2042.593203716012	904.1800714366875	865.8836949412279	2140.076917612272	7.489811561760677	980.8840795757437	2158.657268801079	29.15397325585919	930.8307121046137	2132.069816018703	56.2473427901802	972.4702668024345	1993.840678830358	985.3223114519238	832.8768637122258	2330.969510572234	117.5277740812027	993.4696426786636	2299.011621215399	75.08997072390888	893.2124793700035	1886.320473195605	941.7380058577786	945.4011278657606	2148.463080427349	152.6283879143214	899.318332800021	2115.272852000689	145.8548107684938	943.6574809754626	2106.919300850055	218.6086631360407	880.18845217589	2078.247590243748	215.853075675224	926.2892136315581	2049.125179025868	552.860539849324	834.9897762684602	1996.307676852741	535.2791357774556	879.4565066785241	1997.236493529532	648.7673164970857	815.443963100529	1948.611352407046	632.4175673161731	859.3390614830548	2048.554473620748	891.2355959011627	1122.54264300541	1438.531899435028	327.3951190389796	1042.639768488806	1418.825839836541	510.7204664988855	1003.682065953792	1425.788990319577	486.8229491031019	1055.015111252961	1460.14338028193	492.5062743406548	1010.812876948285	2013.600870829337	987.7379745997596	1136.187067735412	1387.491012628468	295.2651448006342	990.0984456067864	1382.041864674929	343.702718997927	1097.293375840508	1893.560679603504	943.5583539681696	1044.858447327449	1520.083823829715	452.1006544478892	1076.607450440416	1524.979197919533	480.7437096931732	1034.92755857437	1598.566868823583	476.4354625935335	1099.819510761829	1598.830506770772	506.2773063846491	1055.879624102062	1871.616831509989	540.9150453615939	1142.887649526325	1819.716290843435	560.5736155176614	1094.629814085788	1888.937686764483	647.1140276952046	1161.519330427315	1838.445511971837	666.0399045707626	1116.610422656038	
2	0.006666666666666667	2039.998856922581	899.8009302110019	865.1071277234471	2120.514134986817	9.255525511400133	981.9213997800634	2140.92953717672	30.0540338462353	932.3297841656924	2117.205452187153	57.88459465095328	974.857640135311	1990.078896170078	980.3076220272553	832.7809712382974	2317.889819088226	101.4990843338433	995.5760351416581	2282.958135162531	65.24891852789989	894.2687615541322	1884.318592436993	934.6384405258776	948.3398769433394	2138.224113109293	146.8890497277551	901.7659509543649	2105.208858726416	141.7986623522446	946.3952539390334	2099.518401292054	214.5793043535415	882.5227141545148	2071.134431265898	213.1994296273172	928.8264212968938	2050.516234156758	549.0978164037788	835.6914661184113	1998.077598263308	530.517357770426	880.1973770046404	1996.803118727935	643.8850528629337	816.2427635832901	1948.626974876363	626.8428105768079	860.5185109716531	2049.199914888316	884.8550693558443	1122.122768648264	1444.052972657956	337.4084878296285	1042.971444385702	1437.852680267877	521.1351703240306	1005.561249716904	1441.332112088646	495.8633549826891	1056.22296664823	1477.210978368042	500.1501932151559	1013.351665466851	2014.586803187074	980.8060694712775	1137.338272701152	1392.366840137123	310.0949245969402	988.3175052850141	1387.586631308552	357.6682614841598	1096.022637300701	1893.402025612552	935.2389343035427	1047.269144550573	1532.465892738549	456.9969693068584	1078.636112167434	1538.736171385797	485.3077692992364	1037.078108974391	1611.581252890437	476.8086693616922	1101.854317556191	1613.468479086214	506.8015005305637	1058.173257425026	1879.031087909379	530.9975945430429	1144.056138638509	1827.183810218898	548.8568413116556	1095.057548055663	1893.5774922584	637.753547090514	1162.209822702839	1842.789095961482	655.2659406813096	1117.185535367724	
3	0.01333333333333333	2037.296242598493	895.4061527665525	864.3558154308179	2100.768030935974	11.01551366416283	982.9626379248164	2122.935667388396	31.03867429563839	933.8352066814247	2101.958955411772	59.51195729175286	977.2445426623723	1986.22826718973	975.0976675466586	832.739255612691	2304.315133368004	86.16612997683623	997.6925305327979	2266.536008171361	56.00614603392941	895.3499208466239	1882.222288180412	927.5493891504184	951.2584362776586	2127.68957929842	141.5247229205229	904.1989995588079	2094.78947863033	138.1722807576911	949.0394959778996	2091.948958395197	210.8797323374073	884.7631193266128	2063.809606679832	210.924952547471	931.2196971320928	2051.795229715854	545.3634443245792	836.2861397714132	1999.796622696867	525.7988814104514	880.8945780168486	1996.267315081092	639.0364713115266	817.0103808665064	1948.587856925249	621.3040833955854	861.6978856337696	2049.751404297488	878.4847319783452	1121.716210628675	1450.110493497758	347.0850739342943	1043.401573882343	1456.827660571321	531.1190609749266	1007.414874419705	1457.014965182975	504.5739332673538	1057.427701907291	1494.30450482029	507.4893187100342	1015.821743535031	2015.546845972661	973.8368139613241	1138.481402452626	1397.802336943689	324.3640855548226	986.7619200049984	1393.730523522073	371.132246872192	1094.939568813339	1893.110650188543	926.982018543696	1049.64942477241	1545.084173653646	461.6536077883254	1080.657780001657	1552.70743281361	489.6446758963287	1039.218899401899	1624.792216418538	477.0410474175576	1103.889378403926	1628.27105915892	507.1762032041808	1060.467753304421	1886.557300655486	521.2219206579402	1145.234447350459	1834.775461754611	537.2472509651175	1095.523865320361	1898.258633454491	628.5032853698074	1162.899798493235	1847.183798274418	644.5516375881332	1117.754042235361	
4	0.02	2034.396304572959	890.9671865056885	863.6570202562327	2080.68298237082	12.75470793651674	984.008923340821	2104.4471853567	32.17107793273447	935.3486859898875	2085.996796267819	61.11050414973548	979.6264757053877	1982.207688095089	969.514514134373	832.8000118435835	2289.810972605595	72.14946391705793	999.8181733819781	2249.422858122501	47.87865922412774	896.4730029354383	1879.946973147205	920.4801682098257	954.1293349794719	2116.596499983378	136.855839903416	906.5926977511871	2083.710244889754	135.3429585613719	951.5032175295546	2084.058844240173	207.7863162560096	886.8211090571336	2056.089973654	209.3480934732835	933.3372871810114	2052.863904717483	541.6659316368756	836.6734491222006	2001.415228325681	521.1431706877239	881.4997742388304	1995.542509336698	634.2396729778008	817.715885212869	1948.444561587686	615.821124941175	862.8708243434862	2050.111322106203	872.1367821659504	1121.345692210913	1457.166716391149	356.1289846606182	1044.016269758438	1475.717440484878	540.3134421600316	1009.237375316887	1472.971609705163	512.6736205151084	1058.642663541855	1511.461242492645	514.2689076395792	1018.174774595357	2016.407249272946	966.7965685747386	1139.614212411805	1404.273232270577	337.5877197276327	985.6336479948777	1400.994839143089	383.6529750886901	1094.220191896219	1892.56133614806	918.8443686418062	1051.963944974726	1558.166176420782	465.8705007939683	1082.670879851793	1567.099916987695	493.5601277913285	1041.341344308368	1638.398115815253	477.0170546917477	1105.921556445565	1643.406234021729	507.273759973081	1062.756407607606	1894.321575297174	511.7032413841748	1146.437146816087	1842.634575803261	525.8421056509482	1096.065244946064	1903.030272088112	619.448768096757	1163.596228482171	1851.687847238953	633.9290921946156	1118.316264392304	
5	0.02666666666666667	2031.245452959141	886.4735373260279	863.0275644050555	2060.155642727544	14.45974645476782	985.0500339479239	2085.305005457346	33.48870433971938	936.8556252141318	2069.077495268162	62.66555813404054	981.9781036650388	1977.958015732054	963.4355186413372	833.0006730955113	2274.060344615542	59.93976767923267	1001.928364487017	2231.38883082518	41.2400789162099	897.6358820586363	1877.437180990094	913.46283419376	956.9207771923132	2104.739694038441	133.1220381694834	908.9017005425321	2071.745161766707	133.5801589090334	953.7006802841793	2075.714561606007	205.4967174502445	888.6130040245919	2047.827771736364	208.6936959654171	935.0672354250598	2053.627894013516	538.008525293171	836.7799498255591	2002.87094199122	516.5698682753539	881.9766564710784	1994.557433013642	629.5150845870295	818.3340705361934	1948.148600686167	610.4226315916658	864.0280161376788	2050.193999341981	865.8480256459604	1121.035148172958	1465.568314661499	364.2805956278383	1044.876757782779	1494.476841951512	548.4233374754969	1011.032886536324	1489.282971619434	519.9190122321932	1059.889629526892	1528.694300049147	520.275766065085	1020.381915375691	2017.074159430663	959.6877636733271	1140.734380487195	1412.137450012326	349.3559558663074	985.0874212862713	1409.76572480717	394.8493818257886	1094.002196011463	1891.657597784563	910.8977266338272	1054.173391114274	1571.880063077188	469.4840399948939	1084.673726747378	1582.056689147476	496.8930260020411	1043.436231472602	1652.5471010633	476.6530277538739	1107.94235264393	1658.989869540885	507.0001758140628	1065.023743032667	1902.437654791533	502.5580149858162	1147.678750795207	1850.889438045392	514.7532220890106	1096.717788750827	1907.942559528518	610.6785703356745	1164.310017420764	1856.359281642988	623.4433473988439	1118.879774496872	
